<svg xmlns="http://www.w3.org/2000/svg" width="80" height="80" viewBox="0 0 80 80">
  <g id="Group_1472" data-name="Group 1472" transform="translate(-13072 -1516)">
    <g id="Rectangle_489" data-name="Rectangle 489" transform="translate(13072 1516)" fill="#fff" stroke="#e4e4e4" stroke-width="1">
      <rect width="80" height="80" rx="5" stroke="none"/>
      <rect x="0.5" y="0.5" width="79" height="79" rx="4.5" fill="none"/>
    </g>
    <g id="Group_1432" data-name="Group 1432" transform="translate(61.295 -444)">
      <g id="Group_1430" data-name="Group 1430" transform="translate(13042.717 1995)">
        <rect id="Rectangle_304" data-name="Rectangle 304" width="21" height="11" rx="5.5" transform="translate(-0.012)" fill="#001f48"/>
        <path id="moon_2_" data-name="moon (2)" d="M3.53,7.851A3.823,3.823,0,0,1,.023,5.638a3,3,0,0,0,1.264.249A3.088,3.088,0,0,0,4.371,2.8,3.2,3.2,0,0,0,2.708.046,5.862,5.862,0,0,1,3.53,0a3.926,3.926,0,0,1,0,7.852Zm0,0" transform="translate(10.628 1.474)" fill="#fff"/>
      </g>
      <text id="Light" transform="translate(13029.705 2001)" fill="#666" font-size="4" font-family="OpenSans, Open Sans"><tspan x="-4.573" y="0">Light</tspan></text>
      <text id="Dark" transform="translate(13068.705 2001)" fill="#222" font-size="4" font-family="OpenSans-Semibold, Open Sans" font-weight="600"><tspan x="0" y="0">Dark</tspan></text>
    </g>
  </g>
</svg>
