<svg xmlns="http://www.w3.org/2000/svg" width="100" height="100" viewBox="0 0 100 100">
  <g id="Group_1291" data-name="Group 1291" transform="translate(-1306 -4565)">
    <path id="Ellipse_5" data-name="Ellipse 5" d="M50,0A50,50,0,1,1,0,50,50,50,0,0,1,50,0Z" transform="translate(1306 4565)" fill="#ebebeb"/>
    <path id="Path_1292" data-name="Path 1292" d="M49.879,0a49.879,49.879,0,0,1,49.88,49.88c-.129.091-99.7-.011-99.759,0A49.879,49.879,0,0,1,49.879,0Z" transform="translate(1306 4565)" fill="#b381ff"/>
    <path id="Path_1293" data-name="Path 1293" d="M38.518,0a49.88,49.88,0,1,1,0,99.759C38.366,99.346,38.471.1,38.518,0Z" transform="translate(1317.361 4565)" fill="#160037"/>
  </g>
</svg>
