<svg xmlns="http://www.w3.org/2000/svg" width="100" height="100" viewBox="0 0 100 100">
  <g id="Group_1295" data-name="Group 1295" transform="translate(-1306 -5350)">
    <path id="Ellipse_9" data-name="Ellipse 9" d="M50,0A50,50,0,1,1,0,50,50,50,0,0,1,50,0Z" transform="translate(1306 5350)" fill="#d6cb99"/>
    <path id="Path_1300" data-name="Path 1300" d="M49.879,0a49.879,49.879,0,0,1,49.88,49.881c-.129.09-99.7-.012-99.759,0A49.879,49.879,0,0,1,49.88,0Z" transform="translate(1306 5350)" fill="#ff9323"/>
    <path id="Path_1301" data-name="Path 1301" d="M38.518,0a49.88,49.88,0,1,1,0,99.76C38.366,99.346,38.471.1,38.518,0Z" transform="translate(1317.361 5350)" fill="#23243a"/>
  </g>
</svg>
