<svg xmlns="http://www.w3.org/2000/svg" width="100" height="100" viewBox="0 0 100 100">
  <g id="Group_1296" data-name="Group 1296" transform="translate(-1306 -5508)">
    <path id="Ellipse_10" data-name="Ellipse 10" d="M50,0A50,50,0,1,1,0,50,50,50,0,0,1,50,0Z" transform="translate(1306 5508)" fill="#d5d6d7"/>
    <path id="Path_1302" data-name="Path 1302" d="M49.879,0a49.879,49.879,0,0,1,49.88,49.88c-.129.091-99.7-.011-99.759,0A49.879,49.879,0,0,1,49.879,0Z" transform="translate(1306 5508)" fill="#daa40b"/>
    <path id="Path_1303" data-name="Path 1303" d="M38.518,0a49.88,49.88,0,1,1,0,99.759C38.366,99.346,38.471.1,38.518,0Z" transform="translate(1317.361 5508)" fill="#151819"/>
  </g>
</svg>
