<svg xmlns="http://www.w3.org/2000/svg" width="100" height="100" viewBox="0 0 100 100">
  <g id="Group_1292" data-name="Group 1292" transform="translate(-1306 -4767)">
    <path id="Ellipse_6" data-name="Ellipse 6" d="M50,0A50,50,0,1,1,0,50,50,50,0,0,1,50,0Z" transform="translate(1306 4767)" fill="#fff"/>
    <path id="Path_1294" data-name="Path 1294" d="M49.879,0a49.879,49.879,0,0,1,49.88,49.88c-.129.091-99.7-.011-99.759,0A49.879,49.879,0,0,1,49.879,0Z" transform="translate(1306 4767)" fill="#3aff82"/>
    <path id="Path_1295" data-name="Path 1295" d="M38.518,0a49.88,49.88,0,1,1,0,99.759C38.366,99.346,38.471.1,38.518,0Z" transform="translate(1317.361 4767)" fill="#000a3b"/>
  </g>
</svg>
