<svg xmlns="http://www.w3.org/2000/svg" xmlns:xlink="http://www.w3.org/1999/xlink" width="262.974" height="71" viewBox="0 0 262.974 71">
  <defs>
    <clipPath id="clip-path">
      <rect id="Rectangle_1" data-name="Rectangle 1" width="262.974" height="71" transform="translate(-6 -5)" fill="none"/>
    </clipPath>
  </defs>
  <g id="Scroll_Group_1" data-name="Scroll Group 1" transform="translate(6 5)" clip-path="url(#clip-path)">
    <g id="Group_1306" data-name="Group 1306" transform="translate(-3860 -789)">
      <g id="Group_1287" data-name="Group 1287" transform="translate(3485 731)">
        <g id="bg" transform="translate(375 58)" stroke="#ff631a" stroke-width="2">
          <rect width="60" height="60" rx="30" stroke="none"/>
          <rect x="1" y="1" width="58" height="58" rx="29" fill="none"/>
        </g>
        <g id="moon" transform="translate(392.346 73.342)">
          <path id="moon_2_" data-name="moon (2)" d="M14.311,28.577a13.913,13.913,0,0,0,12.765-8.052,10.91,10.91,0,0,1-4.6.908A11.239,11.239,0,0,1,11.249,10.207,11.635,11.635,0,0,1,17.3.17,21.335,21.335,0,0,0,14.311,0a14.288,14.288,0,1,0,0,28.576Zm0,0" transform="translate(-0.023 0.197)" fill="#d7f1e1"/>
          <ellipse id="Ellipse_117" data-name="Ellipse 117" cy="0.5" ry="0.5" transform="translate(29.654 6.658)" fill="#fff"/>
          <circle id="Ellipse_118" data-name="Ellipse 118" transform="translate(24.654 16.658)" fill="#fff"/>
          <circle id="Ellipse_119" data-name="Ellipse 119" transform="translate(17.654 7.658)" fill="#fff"/>
          <circle id="Ellipse_120" data-name="Ellipse 120" transform="translate(24.654 -0.342)" fill="#fff"/>
        </g>
        <circle id="Ellipse_141" data-name="Ellipse 141" cx="1.5" cy="1.5" r="1.5" transform="translate(417 76)" fill="#fff"/>
        <circle id="Ellipse_142" data-name="Ellipse 142" cx="0.5" cy="0.5" r="0.5" transform="translate(412 91)" fill="#fff"/>
        <circle id="Ellipse_143" data-name="Ellipse 143" cx="0.5" cy="0.5" r="0.5" transform="translate(409 81)" fill="#fff"/>
        <circle id="Ellipse_144" data-name="Ellipse 144" cx="0.5" cy="0.5" r="0.5" transform="translate(424 88)" fill="#fff"/>
      </g>
      <path id="Path_1294" data-name="Path 1294" d="M5.04.024,8.976,0l3.288-11.928L15.408,0h3.96l4.68-16.752H20.424L17.448-3.816,14.232-16.752H10.488L7.08-3.744,4.128-16.752H.528ZM29.592-9.144v-4.872h2.664c1.9,0,2.736.912,2.736,2.448,0,1.488-.84,2.424-2.736,2.424Zm8.856-2.424c0-2.9-2.016-5.184-6.048-5.184H26.232V0h3.36V-6.432H32.4c4.32,0,6.048-2.592,6.048-5.136Zm13.944-5.184H46.536V0h5.856c5.352,0,8.832-3.288,8.832-8.352C61.224-13.44,57.744-16.752,52.392-16.752Zm-2.5,13.9V-13.92h2.376c3.528,0,5.52,2.088,5.52,5.568s-1.992,5.5-5.52,5.5ZM62.88-6.7c0,4.152,2.688,6.912,6.048,6.912a5.244,5.244,0,0,0,4.416-2.16V0h3.384V-13.3H73.344v1.9a5.258,5.258,0,0,0-4.392-2.112C65.568-13.512,62.88-10.848,62.88-6.7Zm10.464.048a3.58,3.58,0,0,1-.906,2.73A3.58,3.58,0,0,1,69.816-2.74a3.633,3.633,0,0,1-2.6-1.225,3.633,3.633,0,0,1-.9-2.735,3.546,3.546,0,0,1,.9-2.7,3.546,3.546,0,0,1,2.6-1.165A3.58,3.58,0,0,1,72.44-9.38a3.58,3.58,0,0,1,.9,2.732Zm10.032.024c0-2.568,1.2-3.336,3.192-3.336h.888v-3.528a4.611,4.611,0,0,0-4.08,2.256V-13.3h-3.36V0h3.36ZM89.712,0h3.36V-5.664L97.584,0h4.368l-5.9-6.624L101.9-13.3H97.536L93.072-7.66v-10.1h-3.36ZM109.44,0h3.36V-10.9L117.312,0h2.544l4.488-10.9V0h3.36V-16.752h-3.792L118.584-4.3l-5.328-12.456H109.44Zm34.416-6.648a6.57,6.57,0,0,0-1.909-4.937,6.57,6.57,0,0,0-4.931-1.927,6.57,6.57,0,0,0-4.931,1.927,6.57,6.57,0,0,0-1.909,4.937,6.508,6.508,0,0,0,1.856,4.922A6.508,6.508,0,0,0,136.92.216,6.647,6.647,0,0,0,141.888-1.7a6.647,6.647,0,0,0,1.968-4.948Zm-10.272,0c0-2.664,1.608-3.936,3.384-3.936S140.4-9.312,140.4-6.648c0,2.64-1.7,3.936-3.48,3.936C135.12-2.712,133.584-4.008,133.584-6.648Zm11.88-.048c0,4.152,2.688,6.912,6.072,6.912A5.025,5.025,0,0,0,155.9-1.968V0h3.408V-17.76H155.9v6.312a5.456,5.456,0,0,0-4.344-2.064c-3.4,0-6.092,2.664-6.092,6.812Zm10.464.048a3.58,3.58,0,0,1-.906,2.73A3.58,3.58,0,0,1,152.4-2.736a3.633,3.633,0,0,1-2.6-1.225,3.633,3.633,0,0,1-.9-2.735,3.546,3.546,0,0,1,.9-2.7,3.546,3.546,0,0,1,2.6-1.165,3.58,3.58,0,0,1,2.622,1.182,3.58,3.58,0,0,1,.906,2.73Zm12.384-4.1A2.954,2.954,0,0,1,170.5-10a2.954,2.954,0,0,1,.977,2.1h-6.312a3.088,3.088,0,0,1,3.144-2.852Zm6.312,6.576H171a2.74,2.74,0,0,1-2.664,1.608,3.111,3.111,0,0,1-2.238-.868,3.111,3.111,0,0,1-.953-2.2h9.72a7.853,7.853,0,0,0,.1-1.3,6.242,6.242,0,0,0-1.811-4.748,6.242,6.242,0,0,0-4.741-1.828c-3.936,0-6.672,2.664-6.672,6.864,0,4.176,2.808,6.864,6.672,6.864a6.18,6.18,0,0,0,6.212-4.392Z" transform="translate(3935 827)" fill="#fff"/>
    </g>
  </g>
</svg>
