<?xml version="1.0" standalone="no"?>
<!DOCTYPE svg PUBLIC "-//W3C//DTD SVG 20010904//EN"
 "http://www.w3.org/TR/2001/REC-SVG-20010904/DTD/svg10.dtd">
<svg version="1.0" xmlns="http://www.w3.org/2000/svg"
 width="128.000000pt" height="128.000000pt" viewBox="0 0 128.000000 128.000000"
 preserveAspectRatio="xMidYMid meet">
<metadata>
Created by potrace 1.16, written by Peter Selinger 2001-2019
</metadata>
<g transform="translate(0.000000,128.000000) scale(0.100000,-0.100000)"
fill="#000000" stroke="none">
<path d="M462 1260 c-101 -27 -192 -81 -276 -164 -86 -87 -132 -162 -163 -268
-46 -159 -24 -374 50 -501 69 -117 186 -225 299 -276 112 -50 298 -66 426 -36
219 52 402 230 463 450 30 112 24 286 -14 395 -69 193 -239 351 -433 400 -102
26 -252 26 -352 0z m194 -272 c-83 -82 -110 -149 -104 -258 10 -173 132 -297
302 -308 39 -2 89 1 110 7 22 6 42 9 44 6 8 -7 -58 -94 -98 -127 -22 -19 -66
-48 -97 -64 -54 -27 -66 -29 -173 -29 -111 0 -118 1 -185 34 -209 103 -297
347 -201 557 25 54 97 139 150 177 57 41 146 66 233 66 l82 1 -63 -62z"/>
</g>
</svg>
